<?xml version="1.0" standalone="no"?>
<!DOCTYPE svg PUBLIC "-//W3C//DTD SVG 20010904//EN"
 "http://www.w3.org/TR/2001/REC-SVG-20010904/DTD/svg10.dtd">
<svg version="1.0" xmlns="http://www.w3.org/2000/svg"
 width="500.000000pt" height="500.000000pt" viewBox="0 0 500.000000 500.000000"
 preserveAspectRatio="xMidYMid meet">
<metadata>
Created by potrace 1.11, written by Peter Selinger 2001-2013
</metadata>
<g transform="translate(0.000000,500.000000) scale(0.100000,-0.100000)"
fill="#000000" stroke="none">
<path d="M205 4982 c-99 -34 -174 -117 -195 -215 -8 -37 -10 -685 -8 -2297 l3
-2245 21 -46 c28 -60 93 -125 153 -153 l46 -21 2275 0 2275 0 46 21 c60 28
125 93 153 153 l21 46 0 2275 0 2275 -21 46 c-28 60 -93 125 -153 153 l-46 21
-2260 2 c-2123 2 -2263 1 -2310 -15z m3421 -837 c436 -71 810 -400 952 -840
54 -166 57 -200 57 -600 0 -316 -3 -382 -18 -452 -110 -513 -493 -892 -984
-978 -71 -12 -214 -15 -817 -15 l-731 0 -85 -56 c-245 -161 -584 -287 -942
-350 -138 -24 -182 -27 -453 -31 l-300 -4 120 113 c264 246 360 359 459 538
l38 71 -79 82 c-171 179 -278 387 -330 642 -15 77 -18 142 -18 440 0 379 5
428 62 609 133 425 508 760 930 831 122 20 2013 21 2139 0z"/>
<path d="M1500 3791 c-346 -74 -624 -356 -695 -707 -14 -68 -16 -134 -13 -410
4 -349 6 -367 60 -504 67 -175 229 -365 386 -455 45 -27 85 -52 88 -56 10 -17
-105 -269 -178 -388 -21 -35 -37 -65 -35 -67 7 -7 166 36 280 76 197 68 425
193 530 289 l43 40 810 3 c883 4 833 1 986 62 129 53 253 149 344 269 62 82
128 222 156 333 22 84 23 108 23 424 0 281 -3 348 -17 412 -80 358 -338 618
-676 684 -61 11 -246 14 -1040 13 -891 0 -974 -2 -1052 -18z m1178 -744 c462
-275 469 -280 439 -342 -13 -27 -68 -65 -309 -210 -161 -97 -353 -214 -427
-258 -108 -66 -141 -82 -173 -82 -30 0 -45 6 -59 24 -18 22 -19 48 -19 548 0
352 4 531 11 544 14 26 47 40 84 34 16 -3 220 -119 453 -258z"/>
</g>
</svg>
