<?xml version="1.0" encoding="utf-8"?>
<!-- Generator: Adobe Illustrator 16.0.0, SVG Export Plug-In . SVG Version: 6.00 Build 0)  -->
<!DOCTYPE svg PUBLIC "-//W3C//DTD SVG 1.1//EN" "http://www.w3.org/Graphics/SVG/1.1/DTD/svg11.dtd">
<svg version="1.1" id="Layer_1" xmlns="http://www.w3.org/2000/svg" xmlns:xlink="http://www.w3.org/1999/xlink" x="0px" y="0px"
	 width="27.84px" height="27.84px" viewBox="0 0 27.84 27.84" enable-background="new 0 0 27.84 27.84" xml:space="preserve">
<g transform="translate(0,-952.36218)">
	<path fill="#010101" d="M13.92,952.362c-0.795,0-1.44,0.645-1.44,1.44v11.04H1.44c-0.795,0-1.44,0.645-1.44,1.44
		s0.645,1.439,1.44,1.439h11.04v11.041c0,0.795,0.645,1.439,1.44,1.439c0.795,0,1.439-0.645,1.439-1.439v-11.041H26.4
		c0.795,0,1.439-0.644,1.439-1.439s-0.645-1.44-1.439-1.44H15.359v-11.04C15.359,953.007,14.715,952.362,13.92,952.362z"/>
</g>
</svg>
