<?xml version="1.0" encoding="utf-8"?>
<!-- Generator: Adobe Illustrator 16.0.0, SVG Export Plug-In . SVG Version: 6.00 Build 0)  -->
<!DOCTYPE svg PUBLIC "-//W3C//DTD SVG 1.1//EN" "http://www.w3.org/Graphics/SVG/1.1/DTD/svg11.dtd">
<svg version="1.1" id="Capa_1" xmlns="http://www.w3.org/2000/svg" xmlns:xlink="http://www.w3.org/1999/xlink" x="0px" y="0px"
	 width="512px" height="512px" viewBox="0 0 512 512" enable-background="new 0 0 512 512" xml:space="preserve">
<g>
	<g>
		<path fill="#333333" d="M254.145,275.88c0.53,0,1.06,0,1.696,0c0.212,0,0.424,0,0.636,0c0.318,0,0.742,0,1.06,0
			c31.066-0.53,56.194-11.45,74.749-32.338c40.819-46.015,34.034-124.899,33.292-132.427c-2.65-56.512-29.369-83.548-51.423-96.166
			C297.721,5.513,278.531,0.424,257.113,0h-0.742c-0.106,0-0.318,0-0.424,0h-0.636c-11.769,0-34.883,1.909-57.042,14.525
			c-22.265,12.617-49.408,39.654-52.059,96.59c-0.742,7.528-7.528,86.411,33.292,132.427
			C197.951,264.43,223.079,275.35,254.145,275.88z M174.519,113.766c0-0.318,0.106-0.636,0.106-0.848
			c3.499-76.021,57.466-84.185,80.58-84.185h0.424c0.212,0,0.53,0,0.848,0c28.626,0.636,77.293,12.299,80.58,84.185
			c0,0.318,0,0.636,0.106,0.848c0.106,0.742,7.527,72.84-26.188,110.797c-13.359,15.056-31.172,22.478-54.604,22.689
			c-0.212,0-0.318,0-0.53,0l0,0c-0.212,0-0.318,0-0.53,0c-23.326-0.212-41.244-7.634-54.498-22.689
			C167.203,186.818,174.413,114.402,174.519,113.766z"/>
		<path fill="#333333" d="M473.725,406.716c0-0.105,0-0.212,0-0.317c0-0.849-0.106-1.697-0.106-2.651
			c-0.636-20.993-2.014-70.083-48.029-85.774c-0.318-0.106-0.742-0.213-1.061-0.318c-47.817-12.193-87.577-39.76-88.002-40.078
			c-6.467-4.559-15.373-2.969-19.933,3.499c-4.559,6.468-2.969,15.374,3.499,19.933c1.803,1.272,44.001,30.642,96.802,44.213
			c24.704,8.801,27.461,35.201,28.203,59.375c0,0.954,0,1.803,0.105,2.65c0.106,9.543-0.529,24.28-2.227,32.762
			c-17.176,9.755-84.502,43.471-186.923,43.471c-101.997,0-169.748-33.822-187.03-43.576c-1.696-8.482-2.438-23.22-2.227-32.762
			c0-0.849,0.106-1.697,0.106-2.651c0.742-24.174,3.499-50.574,28.203-59.374c52.801-13.572,95-43.047,96.802-44.213
			c6.468-4.56,8.058-13.466,3.499-19.934c-4.559-6.467-13.465-8.058-19.933-3.498c-0.424,0.318-39.972,27.885-88.001,40.078
			c-0.424,0.105-0.742,0.211-1.061,0.317c-46.015,15.798-47.394,64.888-48.03,85.775c0,0.954,0,1.802-0.106,2.65
			c0,0.106,0,0.212,0,0.318c-0.106,5.513-0.212,33.822,5.407,48.029c1.061,2.757,2.969,5.09,5.514,6.68
			C52.377,463.44,128.61,512,256.159,512c127.549,0,203.782-48.666,206.963-50.681c2.438-1.59,4.453-3.923,5.514-6.68
			C473.937,440.538,473.831,412.229,473.725,406.716z"/>
	</g>
</g>
</svg>
