<svg xmlns="http://www.w3.org/2000/svg" viewBox="2811 675 68 64">
  <defs>
    <style>
      .cls-1, .cls-5 {
        fill: none;
      }

      .cls-1 {
        stroke: #404248;
        stroke-width: 3px;
      }

      .cls-2 {
        fill: #de6d86;
      }

      .cls-3 {
        fill: #404248;
      }

      .cls-4 {
        stroke: none;
      }
    </style>
  </defs>
  <g id="Group_410" data-name="Group 410" transform="translate(1759 -239)">
    <g id="Group_408" data-name="Group 408" transform="translate(1052 914)">
      <g id="Ellipse_85" data-name="Ellipse 85" class="cls-1">
        <ellipse class="cls-4" cx="34" cy="32" rx="34" ry="32"/>
        <ellipse class="cls-5" cx="34" cy="32" rx="32.5" ry="30.5"/>
      </g>
    </g>
    <g id="noun_799657_cc" transform="translate(1068 928)">
      <g id="Group_409" data-name="Group 409">
        <path id="Path_169" data-name="Path 169" class="cls-2" d="M26.1,23.8c-4.077-4.963-1.241-6.736-5.495-10.281a5.629,5.629,0,0,0-7.267-.177c-2.3,2.127-2.127,5.318-.177,7.8,3.013,3.722,8.331,4.786,11.7,4.963C26.273,26.1,26.982,24.686,26.1,23.8Z" transform="translate(9.032 9.37)"/>
        <path id="Path_170" data-name="Path 170" class="cls-3" d="M22.879,17.913C16.5,11.354,3.2-2.471.369.365S11,16.14,17.562,22.7c.177.177.354.177.532-.177a8.62,8.62,0,0,1,1.95-2.482,6.674,6.674,0,0,1,2.659-1.6C23.057,18.444,23.057,18.09,22.879,17.913Z" transform="translate(0.018 0.013)"/>
      </g>
    </g>
  </g>
</svg>
