<?xml version="1.0" encoding="utf-8"?>
<!-- Generator: Adobe Illustrator 16.0.0, SVG Export Plug-In . SVG Version: 6.00 Build 0)  -->
<!DOCTYPE svg PUBLIC "-//W3C//DTD SVG 1.1//EN" "http://www.w3.org/Graphics/SVG/1.1/DTD/svg11.dtd">
<svg version="1.1" id="Layer_1" xmlns="http://www.w3.org/2000/svg" xmlns:xlink="http://www.w3.org/1999/xlink" x="0px" y="0px"
	 width="334.759px" height="102.381px" viewBox="0 0 334.759 102.381" enable-background="new 0 0 334.759 102.381"
	 xml:space="preserve">
<g>
	<path d="M2.185,57.164c0-0.053-0.037-0.521-0.109-1.4c-0.073-0.881-0.158-2.056-0.255-3.524c-0.099-1.469-0.213-3.156-0.347-5.064
		s-0.267-3.91-0.399-6.006c-0.135-2.096-0.268-4.23-0.401-6.406s-0.249-4.258-0.346-6.246s-0.176-3.817-0.236-5.485
		S0,19.981,0,18.888c0-1.629,0.198-2.884,0.594-3.765c0.396-0.881,0.876-1.526,1.438-1.94c0.562-0.414,1.149-0.655,1.763-0.722
		c0.613-0.067,1.15-0.101,1.61-0.101c0.986,0,1.795,0.134,2.423,0.4c0.627,0.268,1.121,0.661,1.481,1.182
		c0.359,0.521,0.606,1.154,0.74,1.902c0.133,0.748,0.2,1.588,0.2,2.521l1.762,47.606l26.095-50.092
		c0.186-0.641,0.507-1.254,0.961-1.842c0.454-0.587,1.003-1.103,1.644-1.541c0.642-0.44,1.349-0.787,2.124-1.041
		s1.577-0.381,2.406-0.381c0.962,0,1.716,0.42,2.264,1.262c0.548,0.841,0.822,1.941,0.822,3.304c0,0.959-0.254,2.242-0.761,3.842
		c-0.507,1.603-1.182,3.404-2.022,5.406c-0.84,2.002-1.821,4.151-2.943,6.446c-1.12,2.296-2.288,4.632-3.503,7.007
		c-1.215,2.377-2.441,4.731-3.684,7.067c-1.241,2.336-2.422,4.53-3.543,6.586c-0.32,0.614-8.182,13.327-9.562,15.795
		c-1.378,2.47-2.709,4.445-3.993,5.926c-1.284,1.482-2.529,2.537-3.733,3.164c-1.204,0.626-2.395,0.94-3.572,0.94
		c-1.602,0-2.91-0.27-3.924-0.809c-1.015-0.54-1.822-1.286-2.423-2.244c-0.6-0.957-1.041-2.096-1.321-3.416
		c-0.279-1.322-0.479-2.749-0.6-4.282c-0.121-1.532-0.207-3.14-0.261-4.821S2.329,58.873,2.185,57.164"/>
	<path d="M67.624,69.75c-0.961,0.88-2.155,1.821-3.584,2.823c-1.428,1-2.97,1.922-4.625,2.762c-1.654,0.841-3.343,1.542-5.063,2.103
		c-1.722,0.561-3.357,0.841-4.905,0.841c-1.388,0-2.556-0.193-3.504-0.58c-0.947-0.387-1.715-0.928-2.302-1.622
		s-1.008-1.542-1.261-2.542c-0.254-1.002-0.381-2.104-0.381-3.304c0-1.683,0.187-3.645,0.561-5.887
		c0.77-4.637,1.264-7.242,1.484-7.814c0.363-1.141,1.091-3.666,2.183-7.577c1.013-3.189,1.638-5.264,1.876-6.227
		c0.131-0.674,0.499-1.28,1.102-1.82c0.552-0.485,1.174-0.885,1.868-1.194c0.696-0.312,1.417-0.54,2.164-0.688
		s1.423-0.223,2.026-0.223c1.101,0,1.849,0.206,2.242,0.62c0.393,0.415,0.59,0.968,0.59,1.662c0,0.588-0.137,1.417-0.411,2.489
		s-0.587,2.295-0.938,3.666s-0.869,3.135-1.558,5.291c-0.688,2.155-1.158,3.993-1.41,5.515s-0.569,3.032-0.954,4.533
		c-0.384,1.501-0.575,2.865-0.575,4.093c0,1.2,0.134,2.154,0.4,2.861c0.266,0.707,0.814,1.06,1.641,1.06
		c0.962,0,2.029-0.333,3.204-1.001c1.175-0.667,2.362-1.474,3.563-2.422c1.201-0.947,2.376-1.928,3.522-2.943
		c1.148-1.013,2.163-1.882,3.044-2.602V69.75z M49.727,27.731c0-0.619,0.133-1.319,0.4-2.102c0.267-0.781,0.7-1.515,1.302-2.203
		c0.6-0.686,1.4-1.265,2.401-1.736c1.001-0.473,2.249-0.709,3.744-0.709c0.935,0,1.815,0.108,2.643,0.324
		c0.827,0.215,1.548,0.545,2.162,0.989c0.613,0.445,1.101,1.031,1.462,1.759c0.359,0.729,0.54,1.59,0.54,2.586
		c0,0.916-0.147,1.807-0.44,2.668c-0.294,0.862-0.761,1.631-1.4,2.304c-0.642,0.674-1.449,1.22-2.424,1.638
		c-0.974,0.418-2.142,0.626-3.503,0.626c-2.349,0-4.084-0.56-5.205-1.678C50.287,31.08,49.727,29.591,49.727,27.731"/>
	<path d="M110.192,69.947c-1.896,1.558-3.764,2.946-5.605,4.166c-0.775,0.511-1.589,1.015-2.443,1.511
		c-0.854,0.496-1.694,0.935-2.521,1.318c-0.828,0.383-1.631,0.693-2.412,0.935s-1.496,0.361-2.146,0.361
		c-0.383,0-0.949-0.085-1.701-0.255c-0.752-0.171-1.571-0.519-2.459-1.042c-0.89-0.524-1.777-1.282-2.665-2.274
		c-0.89-0.993-1.66-2.311-2.315-3.955c-0.992,1.021-2.042,1.991-3.152,2.912c-1.111,0.921-2.264,1.721-3.454,2.401
		c-1.191,0.681-2.396,1.227-3.614,1.637c-1.219,0.411-2.443,0.616-3.675,0.616c-1.735,0-3.237-0.36-4.504-1.082
		c-1.269-0.724-2.322-1.684-3.163-2.881c-0.841-1.199-1.47-2.561-1.882-4.08c-0.414-1.521-0.621-3.095-0.621-4.719
		c0-1.732,0.22-3.486,0.66-5.262c0.44-1.774,1.081-3.495,1.923-5.162c0.841-1.665,1.774-3.406,2.803-5.221
		c1.027-1.816,2.388-3.469,4.084-4.959c1.694-1.491,3.436-2.615,5.225-3.372c1.788-0.759,3.696-1.233,5.726-1.423
		c0.08-3.469,0.447-6.523,1.104-9.165c0.656-2.644,1.363-5.486,2.119-8.531c0.755-3.042,1.731-5.845,2.926-8.407
		s2.504-4.779,3.926-6.646c1.424-1.868,2.94-3.329,4.552-4.383c1.609-1.055,3.274-1.582,4.993-1.582
		c1.255,0,2.322,0.328,3.202,0.981c0.882,0.656,1.596,1.525,2.144,2.608c0.546,1.083,0.939,2.34,1.181,3.77
		c0.24,1.432,0.36,2.909,0.36,4.432c0,0.953-0.009,1.931-0.026,2.936c-0.076,3.833-0.668,7.4-1.773,10.701
		c-1.106,3.301-2.199,6.564-3.28,9.79s-2.384,6.418-3.911,9.575c-2.331,4.832-3.817,8.11-4.455,9.839
		c-0.138,0.378-0.276,0.837-0.416,1.376c-0.138,0.54-0.27,1.127-0.396,1.761c-0.125,0.635-0.229,1.283-0.312,1.944
		s-0.124,1.302-0.124,1.922c0,0.783,0.045,1.525,0.136,2.227c0.092,0.702,0.24,1.329,0.449,1.884
		c0.207,0.553,0.487,0.99,0.838,1.314c0.351,0.325,0.786,0.486,1.307,0.486c0.507,0,1.061-0.102,1.662-0.303
		c0.6-0.201,1.233-0.478,1.901-0.828c0.667-0.351,1.341-0.746,2.022-1.19c0.68-0.445,1.341-0.895,1.981-1.353
		c1.468-1.076,3.003-2.303,4.604-3.675L110.192,69.947z M82.438,46.3c-1.762,0.862-3.33,1.999-4.704,3.412
		c-1.375,1.413-2.523,3.276-3.444,5.591c-0.92,2.315-1.621,4.307-2.102,5.976s-0.721,3.176-0.721,4.521
		c0,0.418,0.061,0.836,0.181,1.254c0.119,0.418,0.34,0.794,0.659,1.128c0.321,0.334,0.774,0.606,1.362,0.815
		c0.587,0.209,1.347,0.312,2.282,0.312c0.479,0,0.955-0.105,1.423-0.318c0.467-0.213,0.914-0.491,1.342-0.834
		c0.427-0.343,0.835-0.734,1.223-1.172c0.387-0.438,0.741-0.895,1.062-1.368c0.748-1.088,1.43-2.319,2.044-3.693
		c-0.081-0.376-0.148-0.974-0.202-1.795c-0.055-0.821-0.096-2.073-0.122-3.755s-0.054-3.061-0.081-4.139
		c-0.027-1.075-0.048-2.059-0.062-2.946c-0.013-0.889-0.033-1.615-0.061-2.18C82.492,46.543,82.465,46.274,82.438,46.3
		 M101.328,18.983c0.166-1.868,0.249-3.351,0.249-4.445c0-1.443-0.129-2.443-0.387-3.004c-0.259-0.561-0.632-0.842-1.119-0.842
		c-0.869,0-1.656,0.541-2.362,1.621c-0.705,1.082-1.272,2.476-1.701,4.182c-0.43,1.707-0.895,3.562-1.398,5.564
		c-0.504,2.006-0.872,3.969-1.105,5.889c-0.232,1.921-0.419,3.652-0.558,5.193c-0.141,1.543-0.24,2.639-0.298,3.287
		c-0.116,1.326-0.212,2.604-0.284,3.834c-0.072,1.232-0.123,2.354-0.152,3.368c-0.03,1.015-0.044,1.901-0.044,2.659v1.744v0.406
		c1.484-3.557,2.853-7.099,4.104-10.627c0.521-1.504,1.035-3.073,1.545-4.707c0.509-1.633,1.014-3.252,1.514-4.86
		c0.501-1.606,0.924-3.199,1.271-4.774C100.947,21.896,101.189,20.399,101.328,18.983"/>
	<path d="M105.541,79.785c0-0.133,0.033-0.945,0.101-2.434c0.065-1.49,0.211-3.476,0.434-5.95c0.223-2.478,0.48-5.339,0.773-8.588
		c0.291-3.248,0.703-6.673,1.234-10.275c0.532-3.6,1.159-7.294,1.882-11.08c0.722-3.787,1.58-7.475,2.575-11.062
		s2.134-6.969,3.415-10.145s2.719-5.953,4.313-8.332s3.373-4.259,5.337-5.64c1.962-1.382,4.115-2.074,6.46-2.074
		c0.905,0,1.857,0.157,2.856,0.468c0.999,0.313,1.911,0.819,2.737,1.522c0.825,0.701,1.511,1.63,2.057,2.788
		c0.546,1.156,0.819,2.58,0.819,4.268c0,1.573-0.254,3.379-0.763,5.416c-0.508,2.038-1.223,4.217-2.143,6.534
		c-0.921,2.319-2.006,4.729-3.255,7.234c-1.25,2.504-2.617,5.002-4.1,7.493c-1.483,2.49-3.042,4.941-4.677,7.354
		c-1.635,2.411-3.304,4.669-5.006,6.772l-0.08,0.641c0.562-0.234,0.983-0.386,1.266-0.455c0.281-0.07,0.576-0.105,0.886-0.105
		c0.371,0,0.672,0.028,0.901,0.088c0.229,0.059,0.436,0.121,0.622,0.191c0.186,0.071,0.379,0.135,0.579,0.193
		s0.442,0.088,0.729,0.088c2.644,0,4.978-0.312,7.007-0.939c2.028-0.625,3.737-1.324,5.125-2.098
		c1.628-0.879,3.043-1.905,4.244-3.078l-0.881,9.756c-1.762,0.971-3.604,1.728-5.525,2.267c-1.922,0.54-3.697,0.943-5.326,1.214
		c-1.895,0.297-3.801,0.485-5.717,0.566c1.03,1.759,1.96,3.582,2.79,5.474c0.715,1.626,1.365,3.444,1.952,5.455
		c0.586,2.012,0.88,4.043,0.88,6.094c0,0.239-0.036,0.745-0.107,1.518c-0.071,0.773-0.191,1.719-0.359,2.838
		c-0.167,1.117-0.405,2.356-0.712,3.717c-0.309,1.357-0.706,2.729-1.195,4.115c-0.488,1.385-1.083,2.724-1.781,4.017
		c-0.698,1.291-1.517,2.436-2.452,3.436c-0.937,0.998-2.013,1.805-3.229,2.417c-1.216,0.613-2.592,0.919-4.129,0.919
		c-1.459,0-2.731-0.333-3.818-0.997c-1.087-0.666-2.015-1.563-2.783-2.695c-0.771-1.131-1.413-2.448-1.93-3.951
		c-0.517-1.505-0.922-3.095-1.214-4.772c-0.291-1.677-0.497-3.387-0.616-5.129C105.601,83.093,105.541,81.409,105.541,79.785
		 M116.131,58.741c-0.107,0-0.229,0.306-0.364,0.915c-0.136,0.61-0.239,1.376-0.313,2.297c-0.074,0.922-0.178,2.236-0.313,3.94
		c-0.137,1.704-0.25,3.099-0.337,4.188c-0.089,1.088-0.159,2.12-0.213,3.095s-0.08,1.741-0.08,2.303
		c0,3.924,0.073,7.047,0.222,9.369c0.147,2.321,0.335,4.084,0.563,5.285c0.229,1.2,0.483,1.981,0.766,2.342
		c0.281,0.359,0.57,0.541,0.866,0.541c0.913,0,1.646-0.415,2.195-1.241c0.551-0.828,0.967-1.876,1.249-3.145
		c0.282-1.267,0.47-2.655,0.563-4.163c0.095-1.509,0.142-2.957,0.142-4.345c0-0.935-0.027-2.082-0.082-3.442
		c-0.053-1.361-0.134-2.831-0.242-4.409c-0.107-1.578-0.331-3.362-0.669-5.354c-0.338-1.99-0.811-3.485-1.419-4.488
		c-0.608-1.001-1.102-1.866-1.479-2.595C116.806,59.105,116.455,58.741,116.131,58.741 M126.265,16.888
		c-1.572,3.545-2.863,6.916-3.875,10.111c-0.926,2.932-1.62,5.529-2.084,7.793c-0.464,2.266-0.793,4.258-0.989,5.976
		c-0.196,1.719-0.39,3.31-0.576,4.774c1.712-3.062,3.479-6.048,5.306-8.951c1.825-2.903,3.422-5.627,4.791-8.172
		c1.37-2.545,2.541-5.002,3.514-7.373c0.972-2.371,1.457-4.063,1.457-5.076c0-1.412-0.197-2.444-0.594-3.098
		c-0.396-0.652-1.056-0.979-1.98-0.979c-1.46,0-2.442,0.318-2.948,0.959C127.893,13.386,127.219,14.731,126.265,16.888"/>
	<path d="M151.565,78.277c-2.492,0-4.673-0.462-6.542-1.385c-1.87-0.924-3.428-2.166-4.674-3.729s-2.181-3.369-2.804-5.42
		c-0.623-2.053-0.935-4.205-0.935-6.461c0-1.475,0.278-3.232,0.836-5.274c0.559-2.042,1.136-3.854,1.732-5.436
		c0.597-1.58,1.347-3.088,2.25-4.523s1.958-2.7,3.166-3.794c1.208-1.093,2.562-1.962,4.063-2.608c1.5-0.645,3.165-0.968,4.997-0.968
		c1.496,0,2.886,0.24,4.168,0.72c1.282,0.48,2.398,1.153,3.348,2.02c0.948,0.867,1.689,1.912,2.224,3.14
		c0.535,1.226,0.803,2.599,0.803,4.118c0,1.618-0.542,3.433-1.626,5.442c-1.083,2.01-2.347,3.732-3.791,5.168
		s-3.163,2.714-5.155,3.837c-1.993,1.122-4.153,1.996-6.48,2.623c0.401,0.705,0.797,1.292,1.186,1.762
		c0.388,0.47,0.783,0.836,1.186,1.096c0.401,0.261,0.824,0.444,1.266,0.548c0.441,0.105,0.917,0.157,1.427,0.157
		c1.602,0,3.29-0.312,5.064-0.939c1.775-0.626,3.504-1.41,5.186-2.351c1.682-0.938,3.27-1.963,4.765-3.073
		c1.495-1.107,2.763-2.158,3.804-3.15l5.165,5.246c-2.349,2.502-4.845,4.715-7.487,6.639c-1.148,0.825-2.383,1.636-3.703,2.433
		c-1.322,0.798-2.71,1.506-4.164,2.123c-1.455,0.618-2.963,1.114-4.525,1.485C154.752,78.093,153.169,78.277,151.565,78.277
		 M146.221,59.207c0.965,0,2.016-0.239,3.155-0.723c1.138-0.482,2.196-1.103,3.175-1.859c0.978-0.758,1.936-1.775,2.873-3.055
		s1.407-2.335,1.407-3.171c0-1.174-0.222-2.14-0.663-2.896c-0.442-0.758-0.985-1.137-1.628-1.137c-1.152,0-2.138,0.209-2.954,0.627
		c-0.817,0.418-1.5,0.959-2.049,1.625c-0.55,0.666-0.992,1.422-1.327,2.271s-0.724,1.898-1.165,3.152
		c-0.442,1.252-0.69,2.283-0.744,3.093C146.247,57.941,146.221,58.634,146.221,59.207"/>
	<path d="M181.755,78.277c-2.492,0-4.673-0.462-6.542-1.385c-1.87-0.924-3.428-2.166-4.674-3.729s-2.181-3.369-2.804-5.42
		c-0.623-2.053-0.935-4.205-0.935-6.461c0-1.475,0.278-3.232,0.837-5.274c0.558-2.042,1.135-3.854,1.731-5.436
		c0.597-1.58,1.347-3.088,2.25-4.523s1.958-2.7,3.166-3.794c1.208-1.093,2.562-1.962,4.063-2.608c1.5-0.645,3.166-0.968,4.998-0.968
		c1.495,0,2.885,0.24,4.168,0.72c1.281,0.48,2.397,1.153,3.347,2.02c0.948,0.867,1.689,1.912,2.224,3.14
		c0.535,1.226,0.803,2.599,0.803,4.118c0,1.618-0.541,3.433-1.625,5.442s-2.348,3.732-3.791,5.168
		c-1.445,1.436-3.164,2.714-5.156,3.837c-1.993,1.122-4.153,1.996-6.48,2.623c0.401,0.705,0.797,1.292,1.186,1.762
		c0.388,0.47,0.783,0.836,1.186,1.096c0.401,0.261,0.824,0.444,1.266,0.548c0.441,0.105,0.918,0.157,1.427,0.157
		c1.602,0,3.29-0.312,5.064-0.939c1.775-0.626,3.504-1.41,5.186-2.351c1.682-0.938,3.27-1.963,4.765-3.073
		c1.495-1.107,2.763-2.158,3.804-3.15l5.165,5.246c-2.349,2.502-4.845,4.715-7.487,6.639c-1.148,0.825-2.382,1.636-3.703,2.433
		c-1.322,0.798-2.71,1.506-4.164,2.123c-1.455,0.618-2.963,1.114-4.525,1.485C184.941,78.093,183.358,78.277,181.755,78.277
		 M176.41,59.207c0.965,0,2.016-0.239,3.155-0.723c1.138-0.482,2.197-1.103,3.175-1.859c0.978-0.758,1.936-1.775,2.873-3.055
		s1.407-2.335,1.407-3.171c0-1.174-0.222-2.14-0.663-2.896c-0.442-0.758-0.985-1.137-1.628-1.137c-1.152,0-2.138,0.209-2.954,0.627
		c-0.817,0.418-1.5,0.959-2.049,1.625c-0.55,0.666-0.992,1.422-1.327,2.271s-0.724,1.898-1.165,3.152
		c-0.442,1.252-0.69,2.283-0.744,3.093C176.437,57.941,176.41,58.634,176.41,59.207"/>
	<path d="M243.883,69.947c-0.161,0.132-0.322,0.264-0.482,0.393c-1.731,1.4-3.438,2.658-5.123,3.773
		c-0.774,0.511-1.589,1.015-2.442,1.511c-0.854,0.496-1.695,0.935-2.522,1.318c-0.828,0.383-1.631,0.693-2.412,0.935
		s-1.496,0.361-2.146,0.361c-0.383,0-0.949-0.085-1.701-0.255c-0.752-0.171-1.571-0.519-2.459-1.042
		c-0.89-0.524-1.777-1.282-2.665-2.274c-0.89-0.993-1.66-2.311-2.315-3.955c-0.992,1.021-2.042,1.991-3.152,2.912
		c-1.111,0.921-2.264,1.721-3.454,2.401c-1.191,0.681-2.396,1.227-3.614,1.637c-1.219,0.411-2.443,0.616-3.675,0.616
		c-1.735,0-3.237-0.36-4.504-1.082c-1.269-0.724-2.322-1.684-3.163-2.881c-0.841-1.199-1.469-2.561-1.882-4.08
		c-0.414-1.521-0.621-3.095-0.621-4.719c0-1.732,0.22-3.486,0.661-5.262c0.439-1.774,1.08-3.495,1.922-5.162
		c0.841-1.665,1.774-3.406,2.803-5.221c1.027-1.816,2.388-3.469,4.084-4.959c1.694-1.491,3.436-2.615,5.225-3.372
		c1.788-0.759,3.696-1.233,5.726-1.423c0.08-3.469,0.448-6.523,1.104-9.165c0.656-2.644,1.363-5.486,2.119-8.531
		c0.755-3.042,1.731-5.845,2.926-8.407s2.504-4.779,3.927-6.646c1.423-1.868,2.939-3.329,4.551-4.383
		c1.609-1.055,3.274-1.582,4.993-1.582c1.255,0,2.322,0.328,3.202,0.981c0.882,0.656,1.596,1.525,2.144,2.608
		c0.546,1.083,0.94,2.34,1.181,3.77c0.24,1.432,0.36,2.909,0.36,4.432c0,0.953-0.009,1.931-0.026,2.936
		c-0.076,3.833-0.668,7.4-1.773,10.701c-1.106,3.301-2.199,6.564-3.28,9.79s-2.384,6.418-3.911,9.575
		c-2.331,4.832-3.816,8.11-4.455,9.839c-0.138,0.378-0.277,0.837-0.416,1.376c-0.138,0.54-0.27,1.127-0.396,1.761
		c-0.125,0.635-0.229,1.283-0.312,1.944s-0.124,1.302-0.124,1.922c0,0.783,0.045,1.525,0.137,2.227
		c0.091,0.702,0.239,1.329,0.448,1.884c0.207,0.553,0.487,0.99,0.838,1.314c0.351,0.325,0.786,0.486,1.307,0.486
		c0.507,0,1.061-0.102,1.662-0.303c0.6-0.201,1.233-0.478,1.901-0.828c0.667-0.351,1.342-0.746,2.022-1.19
		c0.68-0.445,1.341-0.895,1.981-1.353c1.303-0.955,2.657-2.027,4.065-3.216c0.179-0.15,0.358-0.304,0.539-0.459l8.077-6.434
		c0,0,0.281,2.188,0,4.333c-0.219,1.666-0.944,3.254-1.34,4.099C248.526,65.507,243.883,69.947,243.883,69.947 M216.129,46.3
		c-1.762,0.862-3.33,1.999-4.704,3.412c-1.375,1.413-2.523,3.276-3.444,5.591c-0.92,2.315-1.621,4.307-2.102,5.976
		s-0.721,3.176-0.721,4.521c0,0.418,0.061,0.836,0.181,1.254c0.119,0.418,0.34,0.794,0.66,1.128s0.773,0.606,1.361,0.815
		c0.587,0.209,1.348,0.312,2.282,0.312c0.479,0,0.955-0.105,1.423-0.318c0.467-0.213,0.914-0.491,1.342-0.834
		s0.835-0.734,1.223-1.172c0.387-0.438,0.741-0.895,1.062-1.368c0.748-1.088,1.43-2.319,2.044-3.693
		c-0.081-0.376-0.148-0.974-0.202-1.795c-0.055-0.821-0.096-2.073-0.122-3.755s-0.054-3.061-0.081-4.139
		c-0.027-1.075-0.048-2.059-0.062-2.946c-0.013-0.889-0.033-1.615-0.061-2.18C216.183,46.543,216.155,46.274,216.129,46.3
		 M235.019,18.983c0.166-1.868,0.249-3.351,0.249-4.445c0-1.443-0.129-2.443-0.387-3.004c-0.259-0.561-0.632-0.842-1.119-0.842
		c-0.869,0-1.656,0.541-2.362,1.621c-0.705,1.082-1.271,2.476-1.701,4.182c-0.43,1.707-0.895,3.562-1.398,5.564
		c-0.504,2.006-0.872,3.969-1.105,5.889c-0.232,1.921-0.419,3.652-0.558,5.193c-0.141,1.543-0.24,2.639-0.298,3.287
		c-0.116,1.326-0.211,2.604-0.284,3.834c-0.072,1.232-0.123,2.354-0.152,3.368c-0.03,1.015-0.044,1.901-0.044,2.659v1.744v0.406
		c1.484-3.557,2.852-7.099,4.104-10.627c0.521-1.504,1.035-3.073,1.545-4.707c0.509-1.633,1.014-3.252,1.514-4.86
		c0.501-1.606,0.924-3.199,1.271-4.774C234.638,21.896,234.88,20.399,235.019,18.983"/>
	<path d="M313.75-0.001h-30.257c-11.224,0-19.734,9.683-19.734,21.451v7.114c0,6.449,2.434,12.447,7.136,16.479
		c-2.372,4.758-5.437,7.517-5.463,7.54l-5.306,4.84l7.154,0.119c1.38,0,13.437-0.543,23.17-7.544h23.3
		c11.224,0,21.009-9.666,21.009-21.435V21.45C334.759,9.682,324.974-0.001,313.75-0.001 M328.759,28.564
		c0,8.644-6.907,15.435-15.009,15.435h-25.281l-0.779,0.754c-4.54,3.68-9.936,5.475-14.047,6.291
		c1.051-1.633,2.133-3.567,3.067-5.83l0.883-2.122l-1.939-1.285c-4.306-2.897-6.895-7.845-6.895-13.242V21.45
		c0-8.645,6.632-15.451,14.734-15.451h30.257c8.102,0,15.009,6.807,15.009,15.451V28.564z"/>
	<path d="M307.495,23.294l-13.551-8.303c-1.175-0.724-2.186-0.189-2.186,1.19V33.03c0,1.379,1.011,1.912,2.186,1.191l13.521-8.305
		C308.646,25.192,308.67,24.018,307.495,23.294"/>
</g>
</svg>
