<?xml version="1.0" encoding="utf-8"?>
<!-- Generator: Adobe Illustrator 16.0.0, SVG Export Plug-In . SVG Version: 6.00 Build 0)  -->
<!DOCTYPE svg PUBLIC "-//W3C//DTD SVG 1.1//EN" "http://www.w3.org/Graphics/SVG/1.1/DTD/svg11.dtd">
<svg version="1.1" id="Layer_1" xmlns="http://www.w3.org/2000/svg" xmlns:xlink="http://www.w3.org/1999/xlink" x="0px" y="0px"
	 width="48px" height="39px" viewBox="0 0 48 39" enable-background="new 0 0 48 39" xml:space="preserve">
<g>
	<path fill="#FFFFFF" d="M32.25,39H3.75C1.683,39,0,37.318,0,35.25v-19.5C0,13.683,1.683,12,3.75,12h28.5
		c2.068,0,3.75,1.683,3.75,3.75v19.5C36,37.318,34.318,39,32.25,39z M3.75,15C3.337,15,3,15.337,3,15.75v19.5
		C3,35.662,3.337,36,3.75,36h28.5c0.412,0,0.75-0.338,0.75-0.75v-19.5c0-0.414-0.338-0.75-0.75-0.75H3.75z"/>
	<path fill="#FFFFFF" d="M40.5,33c-0.83,0-1.5-0.67-1.5-1.5V9.75C39,9.336,38.662,9,38.25,9H6C5.172,9,4.5,8.328,4.5,7.5
		S5.172,6,6,6h32.25C40.318,6,42,7.683,42,9.75V31.5C42,32.33,41.33,33,40.5,33z"/>
	<path fill="#FFFFFF" d="M46.5,27c-0.83,0-1.5-0.67-1.5-1.5V3.75C45,3.337,44.662,3,44.25,3H12c-0.828,0-1.5-0.672-1.5-1.5
		S11.172,0,12,0h32.25C46.318,0,48,1.683,48,3.75V25.5C48,26.33,47.33,27,46.5,27z"/>
</g>
</svg>
