<?xml version="1.0" encoding="utf-8"?>
<!-- Generator: Adobe Illustrator 16.0.0, SVG Export Plug-In . SVG Version: 6.00 Build 0)  -->
<!DOCTYPE svg PUBLIC "-//W3C//DTD SVG 1.1//EN" "http://www.w3.org/Graphics/SVG/1.1/DTD/svg11.dtd">
<svg version="1.1" id="Layer_1" xmlns="http://www.w3.org/2000/svg" xmlns:xlink="http://www.w3.org/1999/xlink" x="0px" y="0px"
	 width="48px" height="48px" viewBox="0 0 48 48" enable-background="new 0 0 48 48" xml:space="preserve">
<g transform="translate(-390 -620)">
	<g>
		<path fill="#FFFFFF" d="M414,620c-13.255,0-24,10.745-24,24c0,13.256,10.745,24,24,24c13.256,0,24-10.744,24-24
			C438,630.745,427.256,620,414,620z M414,663.2c-10.586,0-19.2-8.614-19.2-19.2c0-10.586,8.614-19.2,19.2-19.2
			c10.586,0,19.2,8.614,19.2,19.2C433.2,654.586,424.586,663.2,414,663.2z"/>
		<polygon fill="#FFFFFF" points="416.4,632 411.6,632 411.6,641.6 402,641.6 402,646.4 411.6,646.4 411.6,656 416.4,656 
			416.4,646.4 426,646.4 426,641.6 416.4,641.6 		"/>
	</g>
</g>
</svg>
