<?xml version="1.0" encoding="utf-8"?>
<!-- Generator: Adobe Illustrator 16.0.0, SVG Export Plug-In . SVG Version: 6.00 Build 0)  -->
<!DOCTYPE svg PUBLIC "-//W3C//DTD SVG 1.1//EN" "http://www.w3.org/Graphics/SVG/1.1/DTD/svg11.dtd">
<svg version="1.1" id="Layer_1" xmlns="http://www.w3.org/2000/svg" xmlns:xlink="http://www.w3.org/1999/xlink" x="0px" y="0px"
	 width="26.996px" height="36.837px" viewBox="0 0 26.996 36.837" enable-background="new 0 0 26.996 36.837" xml:space="preserve">
<g>
	<path fill="#333333" d="M19.396,0H8.452c-4.06,0-7.138,3.366-7.138,7.457v2.474c0,2.241,0.88,4.327,2.581,5.729
		c-0.858,1.653-1.967,2.612-1.977,2.621L0,19.963l2.588,0.043c0.499,0,4.86-0.188,8.381-2.623h8.428c4.062,0,7.601-3.36,7.601-7.452
		V7.457C26.996,3.366,23.457,0,19.396,0z M24.826,9.931c0,3.005-2.499,5.366-5.43,5.366h-9.146L9.97,15.56
		c-1.643,1.278-3.595,1.902-5.081,2.188c0.38-0.568,0.771-1.24,1.109-2.027l0.319-0.738l-0.702-0.445
		c-1.557-1.008-2.493-2.729-2.493-4.604V7.457c0-3.005,2.398-5.371,5.329-5.371h10.943c2.932,0,5.431,2.366,5.431,5.371
		L24.826,9.931L24.826,9.931z"/>
</g>
</svg>
