<?xml version="1.0" encoding="utf-8"?>
<!-- Generator: Adobe Illustrator 16.0.0, SVG Export Plug-In . SVG Version: 6.00 Build 0)  -->
<!DOCTYPE svg PUBLIC "-//W3C//DTD SVG 1.1//EN" "http://www.w3.org/Graphics/SVG/1.1/DTD/svg11.dtd">
<svg version="1.1" id="Layer_1" xmlns="http://www.w3.org/2000/svg" xmlns:xlink="http://www.w3.org/1999/xlink" x="0px" y="0px"
	 width="74.632px" height="57.543px" viewBox="0 0 74.632 57.543" enable-background="new 0 0 74.632 57.543" xml:space="preserve">
<path fill="#FFFFFF" d="M53.625,0H23.367C12.144,0,3.633,9.683,3.633,21.451v7.114c0,6.45,2.435,12.447,7.137,16.479
	c-2.372,4.758-5.438,7.517-5.463,7.54L0,57.424l7.154,0.119c1.381,0,13.438-0.543,23.17-7.544h23.3
	c11.223,0,21.008-9.666,21.008-21.435v-7.113C74.632,9.683,64.847,0,53.625,0 M68.632,28.565C68.632,37.209,61.726,44,53.625,44
	H28.344l-0.779,0.754c-4.54,3.681-9.936,5.476-14.047,6.291c1.051-1.633,2.133-3.567,3.066-5.83l0.883-2.122l-1.938-1.285
	c-4.306-2.896-6.896-7.845-6.896-13.242v-7.115C8.633,12.806,15.266,6,23.367,6h30.257c8.102,0,15.008,6.807,15.008,15.451V28.565z"
	/>
<path fill="#FFFFFF" d="M47.369,23.295l-13.55-8.303c-1.175-0.724-2.186-0.189-2.186,1.19V33.03c0,1.38,1.011,1.912,2.186,1.191
	l13.521-8.305C48.521,25.193,48.544,24.019,47.369,23.295"/>
</svg>
