<?xml version="1.0" encoding="utf-8"?>
<!-- Generator: Adobe Illustrator 16.0.0, SVG Export Plug-In . SVG Version: 6.00 Build 0)  -->
<!DOCTYPE svg PUBLIC "-//W3C//DTD SVG 1.1//EN" "http://www.w3.org/Graphics/SVG/1.1/DTD/svg11.dtd">
<svg version="1.1" id="Layer_1" xmlns="http://www.w3.org/2000/svg" xmlns:xlink="http://www.w3.org/1999/xlink" x="0px" y="0px"
	 width="26.996px" height="20.006px" viewBox="0 0 26.996 20.006" enable-background="new 0 0 26.996 20.006" xml:space="preserve">
<g>
	<path fill="#FFFFFF" d="M19.396,0H8.452c-4.06,0-7.138,3.366-7.138,7.457v2.474c0,2.241,0.88,4.327,2.581,5.729
		c-0.858,1.653-1.967,2.613-1.977,2.621L0,19.963l2.588,0.043c0.499,0,4.86-0.189,8.381-2.623h8.428c4.061,0,7.6-3.361,7.6-7.452
		V7.457C26.996,3.366,23.457,0,19.396,0z M24.826,9.931c0,3.005-2.499,5.366-5.43,5.366h-9.145l-0.281,0.262
		c-1.643,1.279-3.595,1.903-5.081,2.188c0.38-0.568,0.771-1.24,1.109-2.027l0.319-0.738l-0.702-0.446
		c-1.557-1.007-2.493-2.728-2.493-4.604V7.457c0-3.005,2.398-5.371,5.329-5.371h10.944c2.931,0,5.43,2.366,5.43,5.371V9.931z"/>
</g>
</svg>
