<svg xmlns="http://www.w3.org/2000/svg" viewBox="3353 -1525 68 68.007">
  <defs>
    <style>
      .cls-1 {
        fill: #ee8aa3;
      }

      .cls-2 {
        fill: #404248;
      }
    </style>
  </defs>
  <g id="noun_64330" transform="translate(3352.634 -1525.361)">
    <path id="Path_131" data-name="Path 131" class="cls-1" d="M26.274,4C23.6,4,19.846,7.25,17.948,9.09,16.043,7.25,12.29,4,9.615,4,5.76,4,2.96,7.089,2.96,11.354S5.752,18.72,9.608,18.72c2.675,0,6.428-3.261,8.333-5.094,1.9,1.832,5.651,5.094,8.326,5.094,3.862,0,6.67-3.1,6.67-7.366S30.129,4,26.274,4ZM9.615,15.847c-2.609,0-3.782-2.257-3.782-4.493S7.006,6.862,9.615,6.862c1.378,0,4.456,2.463,6.538,4.493C14.071,13.385,10.993,15.847,9.615,15.847Zm16.659,0c-1.385,0-4.456-2.463-6.545-4.493,2.089-2.03,5.16-4.493,6.545-4.493,2.617,0,3.789,2.257,3.789,4.493S28.891,15.847,26.274,15.847Z" transform="translate(16.418 23.007)"/>
    <path id="Path_132" data-name="Path 132" class="cls-2" d="M34.366.361a34,34,0,1,0,34,34A34.038,34.038,0,0,0,34.366.361Zm15.743,60.7L48.167,57.7a.3.3,0,0,0-.4-.11.3.3,0,0,0-.11.4L49.6,61.34a30.876,30.876,0,0,1-13.8,4.009v-7.4a1.437,1.437,0,0,0-2.873,0v7.4a30.876,30.876,0,0,1-13.8-4.009l1.935-3.357a.287.287,0,1,0-.5-.286l-1.95,3.364A31.172,31.172,0,0,1,7.666,50.1l3.371-1.942a.284.284,0,0,0,.1-.388.3.3,0,0,0-.4-.11L7.387,49.6A30.849,30.849,0,0,1,3.378,35.8h7.4a1.437,1.437,0,0,0,0-2.873h-7.4a30.763,30.763,0,0,1,4.016-13.8l3.357,1.935a.3.3,0,0,0,.139.037.278.278,0,0,0,.249-.147.287.287,0,0,0-.1-.388L7.666,18.618a31.092,31.092,0,0,1,10.95-10.95l1.942,3.364a.286.286,0,0,0,.249.147.273.273,0,0,0,.147-.037.293.293,0,0,0,.11-.4L19.129,7.39a30.763,30.763,0,0,1,13.8-4.016v7.4a1.437,1.437,0,0,0,2.873,0v-7.4A30.79,30.79,0,0,1,49.6,7.39l-1.942,3.357a.29.29,0,0,0,.11.388.258.258,0,0,0,.147.037.286.286,0,0,0,.249-.147l1.95-3.364a31.012,31.012,0,0,1,10.942,10.95l-3.364,1.95a.283.283,0,0,0-.11.388.3.3,0,0,0,.249.147.258.258,0,0,0,.147-.037l3.357-1.935a30.749,30.749,0,0,1,4,13.8H57.951a1.437,1.437,0,1,0-.007,2.873h7.4a30.749,30.749,0,0,1-4,13.8l-3.357-1.935a.311.311,0,0,0-.4.11.29.29,0,0,0,.11.4l3.371,1.942A31.172,31.172,0,0,1,50.109,61.061Z" transform="translate(0 0)"/>
  </g>
</svg>
