<svg xmlns="http://www.w3.org/2000/svg" viewBox="3353 -1757 68 68">
  <defs>
    <style>
      .cls-1, .cls-5 {
        fill: none;
      }

      .cls-1 {
        stroke: #404248;
        stroke-width: 3px;
      }

      .cls-2 {
        fill: #ee8aa3;
      }

      .cls-3 {
        fill: #404248;
      }

      .cls-4 {
        stroke: none;
      }
    </style>
  </defs>
  <g id="Group_298" data-name="Group 298" transform="translate(1990 -2322)">
    <g id="Group_297" data-name="Group 297">
      <g id="Group_294" data-name="Group 294" transform="translate(-5)">
        <g id="Ellipse_64" data-name="Ellipse 64" class="cls-1" transform="translate(1368 565)">
          <circle class="cls-4" cx="34" cy="34" r="34"/>
          <circle class="cls-5" cx="34" cy="34" r="32.5"/>
        </g>
      </g>
      <path id="Path_138" data-name="Path 138" class="cls-2" d="M33.546,6.7Q33.328,11.6,26.7,20.127q-6.842,8.914-11.594,8.9c-1.963,0-3.616-1.8-4.961-5.415-.909-3.307-1.8-6.633-2.708-9.94-1-3.616-2.09-5.415-3.235-5.415A10.338,10.338,0,0,0,1.563,9.842L0,7.788c1.654-1.454,3.289-2.908,4.907-4.38C7.105,1.5,8.759.5,9.868.392,12.484.156,14.1,1.937,14.7,5.753c.654,4.125,1.109,6.687,1.363,7.705.745,3.416,1.581,5.125,2.49,5.125q1.063,0,3.162-3.326c1.4-2.217,2.163-3.907,2.253-5.07.2-1.908-.545-2.871-2.253-2.871a6.361,6.361,0,0,0-2.49.545q2.481-8.1,9.45-7.887Q33.855.138,33.546,6.7Z" transform="translate(1380 582.9)"/>
    </g>
    <rect id="Rectangle_206" data-name="Rectangle 206" class="cls-3" width="29" height="3" rx="1.5" transform="translate(1383 617)"/>
  </g>
</svg>
