<svg xmlns="http://www.w3.org/2000/svg" viewBox="3295 423 68 68">
  <defs>
    <style>
      .cls-1, .cls-5 {
        fill: none;
      }

      .cls-1 {
        stroke: #404248;
        stroke-width: 3px;
      }

      .cls-2 {
        fill: #de6d86;
      }

      .cls-3 {
        fill: #fff;
      }

      .cls-4 {
        stroke: none;
      }
    </style>
  </defs>
  <g id="Group_425" data-name="Group 425" transform="translate(1932 -142)">
    <g id="Group_424" data-name="Group 424">
      <g id="Group_422" data-name="Group 422" transform="translate(-5)">
        <g id="Ellipse_89" data-name="Ellipse 89" class="cls-1" transform="translate(1368 565)">
          <circle class="cls-4" cx="34" cy="34" r="34"/>
          <circle class="cls-5" cx="34" cy="34" r="32.5"/>
        </g>
      </g>
      <g id="noun_641789_cc" transform="translate(1369 563.333)">
        <g id="Group_423" data-name="Group 423" transform="translate(7 20.667)">
          <path id="Path_182" data-name="Path 182" class="cls-2" d="M44.077,20.667H11.424A4.437,4.437,0,0,0,7,25.09V44.554a4.437,4.437,0,0,0,4.424,4.424H44.078A4.437,4.437,0,0,0,48.5,44.554V25.09A4.437,4.437,0,0,0,44.077,20.667ZM21.9,41.578V28.066l11.7,6.756Z" transform="translate(-7 -20.667)"/>
        </g>
        <ellipse id="Ellipse_90" data-name="Ellipse 90" class="cls-2" cx="14" cy="11" rx="14" ry="11" transform="translate(14 24.667)"/>
      </g>
      <path id="Path_183" data-name="Path 183" class="cls-3" d="M23.365,4.656q-.152,3.417-4.772,9.354-4.765,6.208-8.075,6.2c-1.367,0-2.519-1.253-3.455-3.772-.633-2.3-1.253-4.62-1.886-6.923C4.481,7,3.721,5.744,2.924,5.744a7.2,7.2,0,0,0-1.835,1.1L0,5.415C1.152,4.4,2.291,3.39,3.417,2.365,4.949,1.036,6.1.34,6.873.264Q9.607.017,10.24,4c.456,2.873.772,4.658.949,5.367.519,2.38,1.1,3.569,1.734,3.569q.74,0,2.2-2.316a9.04,9.04,0,0,0,1.569-3.531c.139-1.329-.38-2-1.569-2a4.43,4.43,0,0,0-1.734.38Q15.119-.173,19.973-.027,23.58.087,23.365,4.656Z" transform="translate(1385 588.031)"/>
    </g>
  </g>
</svg>
