<svg xmlns="http://www.w3.org/2000/svg" viewBox="3353 -1641 68 68">
  <defs>
    <style>
      .cls-1, .cls-5 {
        fill: none;
      }

      .cls-1 {
        stroke: #404248;
        stroke-width: 3px;
      }

      .cls-2 {
        fill: #ee8aa3;
      }

      .cls-3 {
        fill: #404248;
      }

      .cls-4 {
        stroke: none;
      }
    </style>
  </defs>
  <g id="Group_295" data-name="Group 295" transform="translate(1985 -2317)">
    <g id="Ellipse_65" data-name="Ellipse 65" class="cls-1" transform="translate(1368 676)">
      <circle class="cls-4" cx="34" cy="34" r="34"/>
      <circle class="cls-5" cx="34" cy="34" r="32.5"/>
    </g>
    <g id="Group_296" data-name="Group 296" transform="translate(0 -1.355)">
      <g id="noun_641789_cc" transform="translate(1374 674.688)">
        <g id="Group_290" data-name="Group 290" transform="translate(7 20.667)">
          <path id="Path_134" data-name="Path 134" class="cls-2" d="M44.077,20.667H11.424A4.437,4.437,0,0,0,7,25.09V44.554a4.437,4.437,0,0,0,4.424,4.424H44.078A4.437,4.437,0,0,0,48.5,44.554V25.09A4.437,4.437,0,0,0,44.077,20.667ZM21.9,41.578V28.066l11.7,6.756Z" transform="translate(-7 -20.667)"/>
        </g>
      </g>
      <rect id="Rectangle_207" data-name="Rectangle 207" class="cls-3" width="33" height="3" rx="1.5" transform="translate(1385 727.355)"/>
    </g>
  </g>
</svg>
